<svg width="512" height="512" viewBox="0 0 512 512" fill="none" xmlns="http://www.w3.org/2000/svg">
<g clip-path="url(#clip0_2_15)">
<path d="M306.519 339.023C302.186 339.023 297.853 342.963 297.853 356.158C297.853 369.354 302.186 373.294 306.519 373.294C310.851 373.294 315.184 369.354 315.184 356.158C315.184 342.962 310.851 339.023 306.519 339.023Z" fill="white"/>
<path d="M205.483 274.029C201.15 274.029 196.817 277.968 196.817 291.164C196.817 304.36 201.15 308.299 205.483 308.299C209.815 308.299 214.148 304.36 214.148 291.164C214.148 277.968 209.815 274.029 205.483 274.029Z" fill="white"/>
<path d="M405.919 181.64C362.509 133.695 336.711 91.4888 322.712 64.524C307.551 35.3172 302.582 17.2062 302.544 17.0621L298.031 0L281.913 7.18935C280.029 8.02909 235.496 28.338 210.543 78.2431C198.017 103.296 195.512 131.19 195.617 150.177C195.678 161.226 187.849 170.821 177.002 172.99C169.398 174.509 161.575 172.145 156.086 166.656L126.062 136.633L115.734 150.874C114.662 152.352 89.422 187.162 84.827 194.117C62.3882 228.084 50.6878 267.652 50.9911 308.543C51.3975 363.157 72.8744 414.323 111.465 452.619C150.055 490.911 201.385 512 256.001 512C369.046 511.999 461.014 420.031 461.014 306.986C461.015 265.999 440.933 220.312 405.919 181.64ZM306.519 394.563C285.642 394.563 269.885 380.777 269.885 356.158C269.885 331.737 285.641 317.752 306.519 317.752C327.396 317.752 343.152 331.736 343.152 356.158C343.152 380.777 327.395 394.563 306.519 394.563ZM286.43 254.728H319.714L225.571 392.594H192.287L286.43 254.728ZM168.85 291.164C168.85 266.742 184.606 252.759 205.483 252.759C226.361 252.759 242.117 266.742 242.117 291.164C242.117 315.783 226.361 329.57 205.483 329.57C184.606 329.57 168.85 315.783 168.85 291.164Z" fill="white"/>
</g>
<defs>
<clipPath id="clip0_2_15">
<rect width="512" height="512" fill="white"/>
</clipPath>
</defs>
</svg>
