<svg id="line" height="512" viewBox="0 0 64 64" width="512" xmlns="http://www.w3.org/2000/svg"><path d="m29.001 50.84614c1.80713-2.86385-1.78343-6.43328-4.23868-7.476 4.27276-3.84839-.32177-10.70849-5.53821-8.20475a5.01794 5.01794 0 0 0 -1.12084 8.20676 8.36324 8.36324 0 0 0 -4.60967 4.957 2.8557 2.8557 0 0 0 2.7124 3.72169l10.45872.00006a2.87836 2.87836 0 0 0 2.33628-1.20476zm-8.89155-13.88641c4.45186-1.84029 6.25844 5.16045 1.46753 5.695a3.01095 3.01095 0 0 1 -1.46753-5.695zm-3.90345 13.09009a.863.863 0 0 1 -.70839-.36641.767.767 0 0 1 -.11041-.706 6.39459 6.39459 0 0 1 12.09638.00049.76523.76523 0 0 1 -.11041.705.87392.87392 0 0 1 -.70839.3669z"/><path d="m45.84369 43.372c3.44052-2.88571 1.15236-8.83717-3.33163-8.72151a4.9886 4.9886 0 0 0 -3.3273 8.71968 8.36335 8.36335 0 0 0 -4.61437 4.959 2.85573 2.85573 0 0 0 2.71246 3.72168l10.45774.00006a2.87784 2.87784 0 0 0 2.33622-1.20427c1.80591-2.86221-1.77849-6.43091-4.23312-7.47464zm-3.33151-6.72049a3.00271 3.00271 0 1 1 -.14278 6.00325 3.00271 3.00271 0 0 1 .14278-6.0033zm5.9368 13.032a.863.863 0 0 1 -.70839.36641h-10.4578a.863.863 0 0 1 -.70839-.36641.767.767 0 0 1 -.11041-.706 6.3939 6.3939 0 0 1 12.0954.00049.76625.76625 0 0 1 -.11039.70541z"/><path d="m41.48819 32.59605a1.00064 1.00064 0 0 0 1.41476-1.41489 15.32636 15.32636 0 0 0 -20.0676-1.41874.98593.98593 0 0 0 -.84989-.8544.99968.99968 0 0 0 -1.11584.86961l-.25209 2.03626a1.00694 1.00694 0 0 0 .86961 1.11632l2.03724.2516a1.0685 1.0685 0 0 0 .12409.00733.99588.99588 0 0 0 .4588-1.88126 13.39425 13.39425 0 0 1 17.38092 1.28817z"/><path d="m42.42229 53.76032-1.94441-.16855a.98228.98228 0 0 0 -1.08262.91016.99543.99543 0 0 0 .50033.948 13.39442 13.39442 0 0 1 -17.30531-1.34433 1.00067 1.00067 0 0 0 -1.41477 1.41495 15.40008 15.40008 0 0 0 19.89 1.55033.996.996 0 0 0 1.96255-.04128l.299-2.1339a1.00629 1.00629 0 0 0 -.90477-1.13538z"/><path d="m53.70273 25.3279a21.71171 21.71171 0 0 0 -43.41994.44366 1.01218 1.01218 0 0 0 1.60249.46943 11.22593 11.22593 0 0 1 12.60733.05722 1.04018 1.04018 0 0 0 .91645.10644 11.376 11.376 0 0 1 12.91036-.10638 1.00429 1.00429 0 0 0 1.13544-.00006 11.25461 11.25461 0 0 1 12.60532-.05759 1.01322 1.01322 0 0 0 1.64255-.91272zm-29.616-1.5871a13.013 13.013 0 0 0 -11.73925-.06754 19.833 19.833 0 0 1 15.85667-17.31148c-2.50336 3.51661-3.91459 10.4487-4.11746 17.37902zm2.00475-.02211c.31212-10.243 3.21713-17.7006 5.88184-17.72393 2.66483.023 5.56905 7.47651 5.8827 17.71434a13.02285 13.02285 0 0 0 -11.76458.00959zm19.70865-1.39675a13.192 13.192 0 0 0 -5.93913 1.42539c-.20214-6.93252-1.61355-13.86784-4.118-17.38555a19.8287 19.8287 0 0 1 15.8561 17.3061 13.41116 13.41116 0 0 0 -5.79901-1.34594z"/></svg>