<?xml version="1.0" encoding="UTF-8"?>
<svg id="Layer_1" data-name="Layer 1" xmlns="http://www.w3.org/2000/svg" width="25" height="25" viewBox="0 0 25 25">
  <defs>
    <style>
      .cls-1 {
        fill: #fff;
      }
    </style>
  </defs>
  <path class="cls-1" d="M16.32,5.8c.28.28.74.28,1.02,0s.28-.74,0-1.02l-.21-.21h.42c1.59,0,2.88,1.29,2.88,2.88,0,.4.32.72.72.72s.72-.32.72-.72c0-2.38-1.94-4.32-4.32-4.32h-.42l.21-.21c.28-.28.28-.74,0-1.02s-.74-.28-1.02,0l-1.44,1.44c-.28.28-.28.74,0,1.02l1.44,1.44Z"/>
  <path class="cls-1" d="M8.68,19.2c-.28-.28-.74-.28-1.02,0s-.28.74,0,1.02l.21.21h-.42c-1.59,0-2.88-1.29-2.88-2.88,0-.4-.32-.72-.72-.72s-.72.32-.72.72c0,2.38,1.94,4.32,4.32,4.32h.42l-.21.21c-.28.28-.28.74,0,1.02s.74.28,1.02,0l1.44-1.44c.28-.28.28-.74,0-1.02l-1.44-1.44Z"/>
  <path class="cls-1" d="M17.55,8.9c-3.97,0-7.21,3.23-7.21,7.21s3.23,7.21,7.21,7.21,7.26-3.23,7.26-7.21-3.28-7.21-7.26-7.21ZM19.13,16.39c.36.27.58.7.58,1.15,0,.79-.65,1.44-1.44,1.44v.72c0,.4-.32.72-.72.72s-.72-.32-.72-.72v-.72h-.72c-.4,0-.72-.32-.72-.72s.32-.72.72-.72h2.16l-2.31-1.73c-.36-.27-.58-.7-.58-1.15,0-.79.65-1.44,1.44-1.44v-.72c0-.4.32-.72.72-.72s.72.32.72.72v.72h.72c.4,0,.72.32.72.72s-.32.72-.72.72h-2.16l2.31,1.73Z"/>
  <path class="cls-1" d="M7.45,16.1c.5,0,.98-.05,1.45-.15.06-3.66,2.41-6.76,5.67-7.96-.45-3.54-3.45-6.3-7.12-6.3C3.48,1.69.2,4.92.2,8.9s3.28,7.21,7.26,7.21h0ZM6.01,9.62c-.4,0-.72-.32-.72-.72s.32-.72.72-.72h.64l-1.28-2.56c-.18-.36-.03-.79.32-.97.36-.18.79-.03.97.32l.8,1.59.8-1.59c.18-.36.61-.5.97-.32.36.18.5.61.32.97l-1.28,2.56h.64c.4,0,.72.32.72.72s-.32.72-.72.72h-.72v.72h.72c.4,0,.72.32.72.72s-.32.72-.72.72h-.72v.72c0,.4-.32.72-.72.72s-.72-.32-.72-.72v-.72h-.72c-.4,0-.72-.32-.72-.72s.32-.72.72-.72h.72v-.72h-.72Z"/>
</svg>