<?xml version="1.0" encoding="UTF-8"?>
<svg id="Layer_1" data-name="Layer 1" xmlns="http://www.w3.org/2000/svg" width="40" height="40" viewBox="0 0 40 40">
  <defs>
    <style>
      .cls-1 {
        fill: #fff;
      }
    </style>
  </defs>
  <g id="_08" data-name="08">
    <g>
      <path class="cls-1" d="M36.24,16.25h-5c-.69,0-1.25.56-1.25,1.25v1.25h-3.75v2.5h3.75v1.25c0,.69.56,1.25,1.25,1.25h5c.69,0,1.25-.56,1.25-1.25v-5c0-.69-.56-1.25-1.25-1.25ZM33.74,21.25c-.69,0-1.25-.56-1.25-1.25s.56-1.25,1.25-1.25,1.25.56,1.25,1.25-.56,1.25-1.25,1.25Z"/>
      <path class="cls-1" d="M2.51,15l10.62,6v11.49l-9.39-5.52c-.76-.45-1.23-1.27-1.23-2.15v-9.81Z"/>
      <path class="cls-1" d="M36.24,29.99h-5c-.69,0-1.25.56-1.25,1.25v1.25h-5.83l-3.22-2.41-2.33,1.37,4.39,3.29c.22.16.48.25.75.25h6.25v1.25c0,.69.56,1.25,1.25,1.25h5c.69,0,1.25-.56,1.25-1.25v-5c0-.69-.56-1.25-1.25-1.25ZM33.74,34.99c-.69,0-1.25-.56-1.25-1.25s.56-1.25,1.25-1.25,1.25.56,1.25,1.25-.56,1.25-1.25,1.25Z"/>
      <path class="cls-1" d="M25,15l-10.62,6v11.49l9.39-5.52c.76-.45,1.23-1.27,1.23-2.15v-9.81Z"/>
      <path class="cls-1" d="M36.24,2.51h-5c-.69,0-1.25.56-1.25,1.25v1.25h-6.25c-.27,0-.53.09-.75.25l-4.38,3.28,2.33,1.38,3.21-2.41h5.83v1.25c0,.69.56,1.25,1.25,1.25h5c.69,0,1.25-.56,1.25-1.25V3.76c0-.69-.56-1.25-1.25-1.25ZM33.74,7.51c-.69,0-1.25-.56-1.25-1.25s.56-1.25,1.25-1.25,1.25.56,1.25,1.25-.56,1.25-1.25,1.25Z"/>
      <path class="cls-1" d="M2.51,13.75l11.24,6.25,11.24-6.25-10.03-5.92c-.75-.43-1.67-.43-2.43,0L2.51,13.75Z"/>
    </g>
  </g>
</svg>