<?xml version="1.0" encoding="UTF-8"?>
<svg id="Layer_1" data-name="Layer 1" xmlns="http://www.w3.org/2000/svg" width="25" height="25" viewBox="0 0 25 25">
  <defs>
    <style>
      .cls-1 {
        fill: #fff;
      }
    </style>
  </defs>
  <g id="Layer_1-2" data-name="Layer_1">
    <path class="cls-1" d="M15.65,5.03c1-.19,2.62-.29,4.33.43,1.81.71,1.57.57,1.62.43.19-.71,1.28-.48,1.09.29l-.05.24c-.19.48-.81,1.05-3.09.1-.86-.38-1.71-.48-2.43-.48.81.43,1.66,1.05,2.38,1.95,1.14,1.57,1.05,1.33,1.19,1.24.52-.57,1.47.29.62.95-.43.33-1.24.52-2.71-1.47-.52-.62-1.05-1.09-1.62-1.43,1.43,2.47,3.14,5.23,4.19,7.85,1,2.66,1.09,4.76.24,6.28-1.19,2.09-3.95,3.19-8.47,3.28h-.62c.86-1.05,1.05-2.47.38-3.61.52-1,.52-2.14,0-3.09.52-.95.52-2.09,0-3.04,1.19-2.14-.38-4.76-2.9-4.76h-2.71c.9-1.57,2.05-3.38,2.85-4.9.1-.19.29-.29.48-.29h4.95c.1,0,.19,0,.29.05ZM8.9,4.84c-1.9-2.43-.81-5.14.62-4.38.81.43,1.71,1.57,2.9,1,.29-.14,1.28-.52,2.28-.76,1.9-.52,2.52-.33,2.85-.1.24.19.38.48.33.81-.1,1.05-.48,2.05-1.09,3.14-.33-.43-.86-.71-1.43-.71h-4.95c-.71,0-1.19.38-1.52,1ZM9.8,15.49h-5.42c-1.14,0-2.09-.9-2.09-2.09s.95-2.09,2.09-2.09h5.42c1.19,0,2.14.95,2.14,2.09s-.95,2.09-2.14,2.09ZM9.8,18.53h-5.42c-1.38,0-2.33-1.33-2-2.62.52.43,1.24.71,2,.71h5.42c.81,0,1.52-.29,2.09-.71.33,1.28-.67,2.62-2.09,2.62ZM9.8,21.63h-5.42c-1.38,0-2.38-1.33-2-2.66.52.43,1.24.71,2,.71h5.42c.81,0,1.52-.29,2.09-.71.38,1.33-.71,2.66-2.09,2.66ZM9.8,24.67h-5.42c-1.38,0-2.33-1.33-2-2.62.52.43,1.24.71,2,.71h5.42c.81,0,1.52-.29,2.09-.76.33,1.33-.67,2.66-2.09,2.66Z"/>
  </g>
</svg>