<svg width="512" height="512" viewBox="0 0 512 512" fill="none" xmlns="http://www.w3.org/2000/svg">
<path d="M448.8 16H63.2C37.1 16 16 37.2 16 63.2V448.7C16 474.7 37.2 495.9 63.2 495.9H448.7C474.7 495.9 495.9 474.7 495.9 448.7V63.2C495.9 37.1 474.7 16 448.7 16H448.8ZM291.1 313.9H184.6C175.8 313.9 168.6 306.7 168.6 297.9C168.6 289.1 175.8 281.9 184.6 281.9H291.1C299.9 281.9 307.1 289.1 307.1 297.9C307.1 306.7 299.9 313.9 291.1 313.9ZM307.1 402.7C307.1 411.5 299.9 418.7 291.1 418.7H236.9C228 418.7 220.9 411.5 220.9 402.7C220.9 393.9 228 386.7 236.9 386.7H291.1C299.9 386.7 307.1 393.8 307.1 402.7ZM291.2 209.2H132.4C123.5 209.2 116.4 202 116.4 193.2C116.4 184.4 123.5 177.2 132.4 177.2H291.2C300 177.2 307.2 184.3 307.2 193.2C307.2 202.1 300 209.2 291.2 209.2ZM291.1 125.3H80C71.2 125.3 64 118.1 64 109.3C64 100.5 71.2 93.3 80 93.3H291.1C299.9 93.3 307.1 100.5 307.1 109.3C307.1 118.1 299.9 125.3 291.1 125.3ZM443.3 368.4L397.8 413.9C394.7 417 390.6 418.6 386.5 418.6C382.4 418.6 378.3 417 375.2 413.9L329.6 368.4C323.4 362.1 323.4 352 329.6 345.8C335.9 339.6 346 339.6 352.2 345.8L370.4 364V109.3C370.4 100.5 377.6 93.3 386.4 93.3C395.2 93.3 402.4 100.5 402.4 109.3V364L420.6 345.8C426.8 339.6 437 339.6 443.2 345.8C449.5 352.1 449.5 362.2 443.2 368.4H443.3Z" fill="white"/>
</svg>
