<svg
                      id="Layer_1"
                      enable-background="new 0 0 32 32"
                      height="512"
                      viewBox="0 0 32 32"
                      width="512"
                      xmlns="http://www.w3.org/2000/svg"
                    >
                      <path
                        d="m28.048 1h-24.096c-1.628 0-2.952 1.324-2.952 2.952v24.096c0 1.628 1.324 2.952 2.952 2.952h24.096c1.628 0 2.952-1.324 2.952-2.952v-24.096c0-1.628-1.324-2.952-2.952-2.952zm.952 27.048c0 .525-.427.952-.952.952h-24.096c-.525 0-.952-.427-.952-.952v-24.096c0-.525.427-.952.952-.952h24.096c.525 0 .952.427.952.952z"
                      />
                      <path
                        d="m18.196 5.834h-13.196c-.553 0-1 .447-1 1s.447 1 1 1h13.196c.553 0 1-.447 1-1s-.447-1-1-1z"
                      />
                      <path
                        d="m18.196 11.072h-9.925c-.553 0-1 .447-1 1s.447 1 1 1h9.926c.553 0 1-.447 1-1s-.448-1-1.001-1z"
                      />
                      <path
                        d="m18.196 17.619h-6.656c-.553 0-1 .447-1 1s.447 1 1 1h6.656c.553 0 1-.447 1-1s-.447-1-1-1z"
                      />
                      <path
                        d="m18.196 24.166h-3.386c-.553 0-1 .447-1 1s.447 1 1 1h3.386c.553 0 1-.447 1-1s-.447-1-1-1z"
                      />
                      <path
                        d="m26.293 21.612-1.14 1.14v-15.918c0-.553-.447-1-1-1s-1 .447-1 1v15.918l-1.14-1.14c-.391-.391-1.023-.391-1.414 0s-.391 1.023 0 1.414l2.847 2.847c.195.195.451.293.707.293s.512-.098.707-.293l2.847-2.847c.391-.391.391-1.023 0-1.414s-1.023-.39-1.414 0z"
                      />
                    </svg>