<?xml version="1.0" encoding="UTF-8"?>
<svg id="Layer_1" data-name="Layer 1" xmlns="http://www.w3.org/2000/svg" width="40" height="40" viewBox="0 0 40 40">
  <defs>
    <style>
      .cls-1 {
        fill: #fff;
        fill-rule: evenodd;
      }
    </style>
  </defs>
  <path class="cls-1" d="M26.51,8.37c1.11,5.87-3.94,10.92-9.81,9.81-3.28-.62-5.92-3.27-6.54-6.54C9.05,5.77,14.1.72,19.96,1.83c3.28.62,5.92,3.27,6.54,6.54ZM15,21.67c-7.69,0-13.64,7.44-11.05,15.51.22.68.84,1.15,1.56,1.15h15.17c.73,0,1.19-.8.81-1.41-.94-1.53-1.49-3.32-1.49-5.25,0-3.45,1.75-6.49,4.41-8.29.59-.4.39-1.31-.31-1.45-.78-.17-1.6-.25-2.43-.25h-6.66ZM30,25c.92,0,1.67.75,1.67,1.67v3.33h3.33c.92,0,1.67.75,1.67,1.67s-.75,1.67-1.67,1.67h-3.33v3.33c0,.92-.75,1.67-1.67,1.67s-1.67-.75-1.67-1.67v-3.33h-3.33c-.92,0-1.67-.75-1.67-1.67s.75-1.67,1.67-1.67h3.33v-3.33c0-.92.75-1.67,1.67-1.67Z"/>
</svg>