<svg clip-rule="evenodd" fill-rule="evenodd" height="512" stroke-linejoin="round" stroke-miterlimit="2" viewBox="0 0 32 32" width="512" xmlns="http://www.w3.org/2000/svg"><g id="Icon"><path d="m18.966 13.525c.022-.172.034-.347.034-.525 0-2.208-1.792-4-4-4h-10c-2.208 0-4 1.792-4 4 0 1.194.524 2.267 1.355 3-.831.733-1.355 1.806-1.355 3s.524 2.267 1.355 3c-.831.733-1.355 1.806-1.355 3 0 2.208 1.792 4 4 4h10c.398 0 .782-.058 1.145-.167 1.575 1.351 3.62 2.167 5.855 2.167h.029c4.954-.016 8.971-4.043 8.971-9 0-4.967-4.033-9-9-9-1.064 0-2.086.185-3.034.525zm3.034 1.475h.023c3.853.013 6.977 3.144 6.977 7s-3.124 6.987-6.977 7h-.023c-3.863 0-7-3.137-7-7s3.137-7 7-7zm.006 1h-.006c-.552 0-1 .448-1 1v1.026l-.007.001c-1.103.176-1.993 1.192-1.993 2.473 0 1.405 1.071 2.491 2.319 2.5h.014 1.334c.22 0 .333.252.333.5 0 .246-.111.496-.328.5h-.005-2.667c-.552 0-1 .448-1 1s.448 1 1 1h1v1c0 .552.448 1 1 1h.006c.549-.003.994-.45.994-1v-1.026c1.106-.172 2-1.19 2-2.474 0-1.411-1.079-2.5-2.333-2.5h-1.334-.005c-.217-.004-.328-.254-.328-.5 0-.248.113-.5.333-.5h2.667.006c.549-.003.994-.45.994-1s-.445-.997-.994-1h-.006-1v-1c0-.55-.445-.997-.994-1zm-8.951 7h-8.055c-1.104 0-2 .896-2 2s.896 2 2 2h9.517v-.001c-.783-1.168-1.299-2.531-1.462-3.999zm1.462-6h-9.517c-1.104 0-2 .896-2 2s.896 2 2 2h8.055c.163-1.468.679-2.831 1.462-4zm2.483-4c0 1.104-.896 2-2 2h-10c-1.104 0-2-.896-2-2s.896-2 2-2h10c1.104 0 2 .896 2 2zm7-5.414-.293-.293c-.39-.39-1.024-.39-1.414 0s-.39 1.024 0 1.414l2 2c.39.391 1.024.391 1.414 0l2-2c.39-.39.39-1.024 0-1.414s-1.024-.39-1.414 0l-.293.293v-5.586c0-.552-.448-1-1-1s-1 .448-1 1z"/></g></svg>