<svg width="512" height="512" viewBox="0 0 512 512" fill="none" xmlns="http://www.w3.org/2000/svg">
<path d="M256.031 16.0215C194.27 16.0215 144 66.2289 144 127.99C144 189.751 194.27 240.021 256.031 240.021C317.792 240.021 368 189.751 368 127.99C368 66.2289 317.792 16.0215 256.031 16.0215ZM256 47.9583C260.001 47.9583 264 50.622 264 55.9584V73.1933C277.73 76.7835 287.969 89.2547 287.969 104.068C287.992 105.134 287.803 106.193 287.412 107.184C287.02 108.175 286.435 109.079 285.69 109.841C284.944 110.603 284.054 111.208 283.072 111.622C282.09 112.035 281.035 112.247 279.969 112.247C278.903 112.247 277.848 112.035 276.866 111.622C275.883 111.208 274.993 110.603 274.248 109.841C273.503 109.079 272.917 108.175 272.526 107.184C272.135 106.193 271.945 105.134 271.969 104.068C271.969 95.1363 264.963 88.0521 256.031 88.0521C247.1 88.0521 240.031 95.1363 240.031 104.068C240.031 113 247.1 120.068 256.031 120.068C273.61 120.068 287.969 134.489 287.969 152.068C287.969 166.881 277.73 179.352 264 182.943V200.022C264 210.691 248 210.691 248 200.022V182.928C234.287 179.317 224.016 166.86 224.016 152.068C224.016 149.944 224.859 147.908 226.361 146.406C227.863 144.904 229.9 144.06 232.024 144.06C234.147 144.06 236.184 144.904 237.686 146.406C239.188 147.908 240.031 149.944 240.031 152.068C240.031 160.999 247.1 168.084 256.031 168.084C264.963 168.084 271.969 160.999 271.969 152.068C271.969 143.136 264.963 136.068 256.031 136.068C238.453 136.068 224.016 121.646 224.016 104.068C224.016 89.2759 234.287 76.8192 248 73.2081V55.9584C248 50.6236 251.999 47.9583 256 47.9583ZM458.844 217.584C449.135 217.584 439.403 221.306 432.031 228.677C415.146 245.563 398.261 262.448 381.375 279.333C388.024 288.54 392 299.798 392 312.005C392 342.89 366.901 367.99 336.016 367.99H248.813C237.191 369.033 237.191 351.009 248.813 352.052H336.016C358.314 352.052 376 334.303 376 312.005C376 304.156 373.71 296.961 369.875 290.849C362.821 279.71 350.418 272.24 336.016 272.021L168 272.037C134.009 272.04 115.134 289.612 99.3282 305.38L210.406 416.459C212.123 416.187 213.937 416.005 216.016 416.005H352.016C379.504 416.005 402.477 402.431 418.75 378.864C437.075 352.326 471.388 302.672 486.547 281.177C492.064 273.353 495.597 264.397 495.938 255.084C496.276 245.771 493.056 236.076 485.656 228.677C478.285 221.306 468.552 217.584 458.844 217.584ZM72 304.006C69.9557 304.003 67.9162 304.777 66.3594 306.334L18.3594 354.349C15.2156 357.477 15.2156 362.565 18.3594 365.693L146.391 493.662C149.511 496.764 154.551 496.764 157.672 493.662L205.672 445.646C208.774 442.525 208.774 437.486 205.672 434.365L77.6407 306.334C76.0934 304.786 74.0444 304.009 72 304.006Z" fill="white"/>
</svg>
