<?xml version="1.0" encoding="UTF-8"?>
<svg id="Layer_1" data-name="Layer 1" xmlns="http://www.w3.org/2000/svg" width="40" height="40" viewBox="0 0 40 40">
  <defs>
    <style>
      .cls-1 {
        fill: #fff;
      }
    </style>
  </defs>
  <g id="Account_security" data-name="Account security">
    <g>
      <circle class="cls-1" cx="15.71" cy="5.71" r="5.71"/>
      <path class="cls-1" d="M12.71,19.36c0-.91.03-1.29,8.26-5.4-1.67-.71-3.44-1.1-5.26-1.1-7.87,0-14.29,7.04-14.29,15.71,0,.79.64,1.43,1.43,1.43h11.74c-1.24-3.21-1.89-6.77-1.89-10.64Z"/>
      <path class="cls-1" d="M27.77,14.43c-.39-.19-.86-.19-1.24,0-2.04.97-10.93,4.9-10.93,6.34.1,13.01,10.51,18.83,10.99,19.07.2.1.43.16.66.16s.46-.06.67-.17c.43-.23,10.66-5.77,10.66-18.84,0-1.03,0-1.41-10.8-6.56ZM32.49,25.24l-5.14,5.71c-.27.3-.66.47-1.06.47s-.79-.17-1.06-.47l-3.43-3.81c-.53-.59-.49-1.49.1-2.01s1.49-.49,2.01.1l2.37,2.63,4.09-4.53c.53-.59,1.43-.63,2.01-.1s.63,1.43.1,2.01Z"/>
    </g>
  </g>
</svg>