<?xml version="1.0" encoding="UTF-8"?>
<svg id="Layer_1" xmlns="http://www.w3.org/2000/svg" version="1.1" xmlns:xlink="http://www.w3.org/1999/xlink" viewBox="0 0 85 126">
  <!-- Generator: Adobe Illustrator 29.1.0, SVG Export Plug-In . SVG Version: 2.1.0 Build 142)  -->
  <defs>
    <style>
      .st0 {
        fill: url(#linear-gradient);
        fill-rule: evenodd;
      }
    </style>
    <linearGradient id="linear-gradient" x1="83.4" y1="-40.9" x2="13.4" y2="139.9" gradientTransform="translate(0 128) scale(1 -1)" gradientUnits="userSpaceOnUse">
      <stop offset="0" stop-color="#020202"/>
      <stop offset="1" stop-color="#08a66e"/>
    </linearGradient>
  </defs>
  <path class="st0" d="M24.5,22.3c2.5,11.3,7.9,26.1,15.5,41.7,7.6,15.5,16.1,28.8,23.5,37.7,3.7,4.5,7.2,7.8,10.1,9.8,3,2,5.3,2.5,6.8,1.8,1.5-.7,2.5-2.8,2.7-6.4.2-3.6-.3-8.3-1.6-14-2.5-11.3-7.9-26.1-15.5-41.7-7.6-15.5-16.1-28.8-23.5-37.7-3.7-4.5-7.2-7.8-10.1-9.8-3-2-5.3-2.5-6.8-1.8h0s0,0,0,0h0c-1.4.8-2.4,2.9-2.6,6.4-.2,3.6.3,8.3,1.6,14ZM21.4,8.3c-.2,3.7.4,8.6,1.6,14.3,0,.3.1.6.2.8L3.2,33.3c0-.2,0-.3-.1-.5-1.3-5.7-1.8-10.5-1.6-14,0-.2,0-.5,0-.7l19.8-9.7ZM28.5,40.9c-2.2-6.1-4-11.9-5.2-17L3.3,33.8c1.2,5.1,2.9,10.8,5.2,17l20-9.8ZM28.7,41.4c2.1,5.8,4.7,12,7.7,18.3l-20,9.8c-3-6.4-5.5-12.5-7.6-18.3l20-9.8ZM16.5,70l20-9.8c.7,1.5,1.4,2.9,2.1,4.4,2.2,4.5,4.5,8.8,6.8,12.9l-20,9.8c-2.3-4.1-4.6-8.4-6.8-12.9h0c-.7-1.5-1.4-3-2.1-4.4ZM25.7,87.8c3.7,6.5,7.5,12.4,11.1,17.4l20-9.8c-3.6-5.1-7.4-10.9-11.1-17.4l-20,9.8ZM42.2,112.2c-1.6-2-3.3-4.2-5.1-6.5l20-9.8c1.8,2.5,3.6,4.8,5.3,6.8,2.1,2.5,4.1,4.6,5.9,6.4l-19.9,9.8c-2-1.8-4-4-6.2-6.7ZM48.8,119.2c1.2,1.1,2.4,2,3.5,2.8,3,2,5.3,2.5,6.8,1.8l18.2-8.9c-1.4-.4-2.9-1.1-4.4-2.1-1.3-.9-2.7-2-4.1-3.3l-19.9,9.8ZM21.5,7.8c.1-1.6.4-3.1,1-4.3L4.3,12.3h0c-1.3.6-2.2,2.3-2.6,5.1L21.5,7.8ZM24.9.5L3.6,11h0C1.3,12.1.3,15,0,18.7c-.2,3.8.3,8.7,1.6,14.4,2.6,11.5,8,26.4,15.7,42,7.7,15.6,16.2,29,23.7,38,3.8,4.5,7.3,8,10.4,10.1,3.1,2.1,6,3,8.3,1.9h0l21.4-10.5h0s0,0,0,0c2.3-1.1,3.3-4,3.6-7.7.2-3.8-.3-8.7-1.6-14.4-2.6-11.5-8-26.4-15.7-42-7.7-15.6-16.2-29-23.7-38-3.8-4.5-7.3-8-10.4-10.1C30.2.3,27.3-.6,25,.5c0,0,0,0-.1,0ZM27.2,23.4c2.8,10.6,8.2,24.5,15.4,39.2,7.2,14.7,15,27.5,21.6,36.1,3.3,4.3,6.4,7.7,9,9.7,1.3,1,2.5,1.7,3.5,2.1,1,.4,1.8.4,2.5,0,.7-.3,1.2-1,1.5-2,.3-1,.5-2.4.5-4,0-3.3-.8-7.7-2.2-13-2.8-10.6-8.2-24.5-15.4-39.2-7.2-14.7-15-27.5-21.6-36.1-3.3-4.3-6.4-7.7-9-9.7-1.3-1-2.5-1.7-3.5-2.1-1-.4-1.8-.4-2.5,0-.7.3-1.2,1-1.5,2-.3,1-.5,2.4-.5,4,0,3.3.8,7.7,2.2,13ZM24.9,6.2c.4-1.1.9-1.9,1.7-2.3.8-.4,1.8-.4,2.9,0,1.1.4,2.3,1.1,3.6,2.2,2.6,2.1,5.7,5.5,9.1,9.8,6.7,8.7,14.4,21.5,21.7,36.2,7.2,14.7,12.6,28.7,15.4,39.3,1.4,5.3,2.2,9.8,2.2,13.2,0,1.7-.1,3.1-.5,4.2-.4,1.1-.9,1.9-1.7,2.3-.8.4-1.8.4-2.9,0-1.1-.4-2.3-1.1-3.6-2.2-2.6-2.1-5.7-5.4-9.1-9.8-6.7-8.7-14.4-21.5-21.7-36.2-7.2-14.7-12.6-28.7-15.4-39.3-1.4-5.3-2.2-9.8-2.2-13.2,0-1.7.1-3.1.5-4.2ZM61.3,76.5c-.1,0-.2,0-.3-.1l-1.7-3.2c-1.6,0-3.2-.5-4.9-1.8-1.7-1.2-3-2.9-4.1-4.9l-1.1-2.1c0-.1,0-.3,0-.3l3.6-1.7c0,0,.1,0,.2.2l1.1,2.1c.5,1,1.2,1.7,2,2.2.9.5,1.6.6,2.3.3.7-.3,1.1-.9,1.1-1.9,0-.9-.1-1.9-.6-2.8-.6-1.2-1.6-1.9-3-2.2-.5-.1-1.2-.3-2.3-.5-.5-.1-.9-.2-1.4-.3h0c-.5-.1-1-.2-1.5-.3-1.7-.4-3.2-1.2-4.6-2.5-1.3-1.3-2.5-2.8-3.5-4.7-1.1-2.1-1.6-4.1-1.5-6,0-1.9.6-3.5,1.6-4.7l-1.7-3.2c0-.1,0-.3,0-.3l3.4-1.6c.1,0,.2,0,.3.1l1.7,3.3c1.5,0,3.1.6,4.7,1.7,1.6,1.2,2.9,2.8,4,4.8l1.9,3.7c0,.1,0,.2,0,.2l-3.6,1.7c0,0-.1,0-.2-.1l-2-3.7c-.6-1.1-1.2-1.8-2-2.3-.8-.4-1.5-.5-2.2-.2-.7.3-1,.9-1.1,1.8,0,.9.1,1.9.6,2.8.5.9,1,1.7,1.6,2.2.6.5,1.5.9,2.5,1.2l4.6,1c1.5.3,2.9,1,4.1,1.9,1.2.9,2.3,2.3,3.3,4.2,1.1,2.1,1.6,4.1,1.6,6.1,0,1.9-.5,3.5-1.5,4.7l1.7,3.3c0,.1,0,.3,0,.3l-3.4,1.6Z"/>
</svg>