<svg width="24" height="24" viewBox="0 0 24 24" fill="none" xmlns="http://www.w3.org/2000/svg">
<rect width="24" height="24" rx="12" fill="#08A66E"/>
<g clip-path="url(#clip0_1058_1554)">
<rect x="6" y="6" width="12" height="12" rx="6" fill="#08A66E"/>
<path fill-rule="evenodd" clip-rule="evenodd" d="M16.7801 8.61973C16.9205 8.76036 16.9994 8.95098 16.9994 9.14973C16.9994 9.34848 16.9205 9.53911 16.7801 9.67973L10.6831 15.7767C10.6127 15.847 10.529 15.9027 10.4369 15.9403C10.3448 15.978 10.2462 15.997 10.1467 15.9961C10.0472 15.9953 9.94888 15.9747 9.85744 15.9354C9.766 15.8962 9.68328 15.8392 9.61408 15.7677L7.21108 13.2837C7.07404 13.1405 6.99926 12.9489 7.00307 12.7508C7.00688 12.5526 7.08898 12.364 7.23142 12.2262C7.37387 12.0883 7.56507 12.0125 7.76326 12.0152C7.96144 12.018 8.15049 12.099 8.28908 12.2407L10.1621 14.1767L15.7201 8.61973C15.8607 8.47928 16.0513 8.40039 16.2501 8.40039C16.4488 8.40039 16.6395 8.47928 16.7801 8.61973Z" fill="white"/>
</g>
<defs>
<clipPath id="clip0_1058_1554">
<rect x="6" y="6" width="12" height="12" rx="6" fill="white"/>
</clipPath>
</defs>
</svg>
