<svg width="512" height="512" viewBox="0 0 512 512" fill="none" xmlns="http://www.w3.org/2000/svg">
<g clip-path="url(#clip0_2_5)">
<path d="M0 221.637V511.853H220.005V444.886H331.675V377.772V221.637H0ZM106.69 396.697H136.609V398.085C136.609 407.91 144.602 415.903 154.427 415.903H173.328C183.153 415.903 191.146 407.91 191.146 398.085C191.146 388.26 183.153 380.267 173.328 380.267H154.427C128.105 380.267 106.69 358.852 106.69 332.529V332.065C106.69 307.606 125.182 287.396 148.918 284.655V254.106H178.837V284.655C202.573 287.396 221.066 307.606 221.066 332.065V333.124H191.147V332.065C191.147 322.24 183.154 314.246 173.329 314.246H154.428C144.603 314.246 136.61 322.24 136.61 332.065V332.529C136.61 342.354 144.603 350.348 154.428 350.348H173.329C199.651 350.348 221.066 371.763 221.066 398.085C221.066 422.544 202.573 442.753 178.837 445.494V476.044H148.918V445.494C125.183 442.752 106.69 422.543 106.69 398.085V396.697Z" fill="white"/>
<path d="M361.595 407.692H455.245V444.886H361.595V407.692Z" fill="white"/>
<path d="M361.595 474.806H455.245V512H361.595V474.806Z" fill="white"/>
<path d="M249.925 474.806H331.676V511.853H249.925V474.806Z" fill="white"/>
<path d="M471.282 377.773C493.77 377.773 512 359.543 512 337.055C512 314.567 493.77 296.337 471.282 296.337C448.794 296.337 430.564 314.567 430.564 337.055C430.564 359.543 448.794 377.773 471.282 377.773Z" fill="white"/>
<path d="M221.066 108.82V116.827H272.809V108.093C272.809 48.395 224.414 0 164.715 0C105.017 0 56.621 48.395 56.621 108.094V193.339H108.364V108.82C108.364 77.698 133.593 52.469 164.715 52.469C195.837 52.47 221.066 77.699 221.066 108.82Z" fill="white"/>
</g>
<defs>
<clipPath id="clip0_2_5">
<rect width="512" height="512" fill="white"/>
</clipPath>
</defs>
</svg>
