<?xml version="1.0" encoding="UTF-8"?>
<svg xmlns="http://www.w3.org/2000/svg" id="Icons" viewBox="0 0 60 60" width="512" height="512"><path d="M59.228,49.414l-5.094-4A1.916,1.916,0,0,0,52.1,45.2,1.989,1.989,0,0,0,50.99,47H49V24a5.009,5.009,0,0,0-4-4.9V15a15,15,0,0,0-30,0v4.1A5.009,5.009,0,0,0,11,24H9.01A1.986,1.986,0,0,0,7.9,22.2a1.92,1.92,0,0,0-2.035.215l-5.091,4a2.015,2.015,0,0,0,0,3.171l5.094,4A1.913,1.913,0,0,0,7.9,33.8,1.989,1.989,0,0,0,9.01,32H11V55a5.006,5.006,0,0,0,5,5H44a5.006,5.006,0,0,0,5-5h1.99A1.986,1.986,0,0,0,52.1,56.8a1.913,1.913,0,0,0,2.035-.215l5.091-4a2.015,2.015,0,0,0,0-3.171ZM30,2A13.015,13.015,0,0,1,43,15v4H41V15a11,11,0,0,0-22,0v4H17V15A13.015,13.015,0,0,1,30,2Zm9,17H21V15a9,9,0,0,1,18,0ZM16,21H44a3,3,0,0,1,3,3V47H38.919A11.98,11.98,0,0,0,30,27c-.338,0-.669.023-1,.051V26a2,2,0,0,0-2-2H13A3,3,0,0,1,16,21ZM30,49A10,10,0,1,1,40,39,10.011,10.011,0,0,1,30,49ZM8,30a1,1,0,0,0-1,1.01l.1,1-5.09-4.028,5-4-.01,1A1,1,0,0,0,8,26H27V27.4A11.967,11.967,0,0,0,22.089,30ZM44,58H16a3,3,0,0,1-3-3V32h7.273A11.979,11.979,0,0,0,30,51c.338,0,.669-.023,1-.051V53a2,2,0,0,0,2,2H47A3,3,0,0,1,44,58Zm8.99-2.99.01-1A1,1,0,0,0,52,53H33v-2.4A11.936,11.936,0,0,0,36.619,49H52a1,1,0,0,0,1-1.01l-.1-1,5.09,4.028Z"/><path d="M30,34a2,2,0,0,1,2,2,1,1,0,0,0,2,0,4,4,0,0,0-3-3.858V32a1,1,0,1,0-2,0v.143A3.992,3.992,0,0,0,30,40a2,2,0,1,1-2,2,1,1,0,0,0-2,0,4,4,0,0,0,3,3.858V46a1,1,0,0,0,2,0v-.141A3.992,3.992,0,0,0,30,38a2,2,0,0,1,0-4Z"/></svg>
