<?xml version="1.0" encoding="UTF-8"?>
<svg id="Layer_1" data-name="Layer 1" xmlns="http://www.w3.org/2000/svg" width="25" height="25" viewBox="0 0 25 25">
  <defs>
    <style>
      .cls-1, .cls-2 {
        fill: #fff;
      }

      .cls-2 {
        fill-rule: evenodd;
      }
    </style>
  </defs>
  <path class="cls-1" d="M5,1.25h15c2.75,0,5,2.25,5,5,0,2.12-1.25,3.88-3.13,4.62v-4.62c0-.5-.25-1-.5-1.37s-.88-.5-1.38-.5H5c-.5,0-1,.25-1.37.5s-.5.87-.5,1.37v4.62c-1.88-.75-3.13-2.5-3.13-4.62C0,3.5,2.25,1.25,5,1.25Z"/>
  <path class="cls-2" d="M20,6.25v15c0,1.38-1.12,2.5-2.5,2.5H7.5c-1.37,0-2.5-1.12-2.5-2.5V6.25h15ZM10.63,15.62l.87.87v-5.25c0-.5.38-1,1-1s1,.38,1,1v5.25l.87-.87c.38-.38,1-.38,1.38,0s.38,1,0,1.38l-1.63,1.62c-.87.88-2.25.88-3.13,0l-1.63-1.63c-.38-.38-.38-1,0-1.38s.87-.38,1.25,0h0Z"/>
</svg>