<?xml version="1.0" encoding="UTF-8"?>
<svg id="Layer_1" data-name="Layer 1" xmlns="http://www.w3.org/2000/svg" width="67.2" height="32" xmlns:xlink="http://www.w3.org/1999/xlink" viewBox="0 0 67.2 32">
  <defs>
    <style>
      .cls-1 {
        fill: url(#linear-gradient-2);
      }

      .cls-2 {
        fill: url(#linear-gradient-4);
      }

      .cls-3 {
        fill: url(#linear-gradient-3);
      }

      .cls-4 {
        fill: url(#linear-gradient-5);
      }

      .cls-5 {
        fill: url(#linear-gradient-6);
      }

      .cls-6 {
        fill: url(#linear-gradient);
      }
    </style>
    <linearGradient id="linear-gradient" x1="37.65" y1="714.69" x2="37.65" y2="684.39" gradientTransform="translate(0 -682.69)" gradientUnits="userSpaceOnUse">
      <stop offset="0" stop-color="#9d9fa2"/>
      <stop offset="1" stop-color="#d1d3d4"/>
    </linearGradient>
    <linearGradient id="linear-gradient-2" x1="25.9" y1="714.69" x2="25.9" y2="684.29" gradientTransform="translate(0 -682.69)" gradientUnits="userSpaceOnUse">
      <stop offset="0" stop-color="#9d9fa2"/>
      <stop offset="1" stop-color="#f1f2f2"/>
    </linearGradient>
    <linearGradient id="linear-gradient-3" x1="25.47" y1="691.41" x2="32.77" y2="701.61" gradientTransform="translate(0 -682.69)" gradientUnits="userSpaceOnUse">
      <stop offset="0" stop-color="#9d9fa2" stop-opacity="0"/>
      <stop offset="0" stop-color="#919396" stop-opacity=".2"/>
      <stop offset=".2" stop-color="#7d7f81" stop-opacity=".6"/>
      <stop offset=".3" stop-color="#6f7072" stop-opacity=".8"/>
      <stop offset=".4" stop-color="#666769" stop-opacity=".9"/>
      <stop offset=".5" stop-color="#636466"/>
      <stop offset=".6" stop-color="#656668"/>
      <stop offset=".7" stop-color="#6c6d6f" stop-opacity=".9"/>
      <stop offset=".8" stop-color="#76787a" stop-opacity=".7"/>
      <stop offset=".9" stop-color="#86878a" stop-opacity=".5"/>
      <stop offset="1" stop-color="#9a9b9e" stop-opacity=".2"/>
      <stop offset="1" stop-color="#a7a9ac" stop-opacity="0"/>
    </linearGradient>
    <linearGradient id="linear-gradient-4" x1="0" y1="698.69" x2="67.2" y2="698.69" gradientTransform="translate(0 -682.69)" gradientUnits="userSpaceOnUse">
      <stop offset="0" stop-color="#08ac71"/>
      <stop offset="1" stop-color="#067b58"/>
    </linearGradient>
    <linearGradient id="linear-gradient-5" x1="0" y1="698.69" x2="66037.1" y2="698.69" gradientTransform="translate(0 -682.69)" gradientUnits="userSpaceOnUse">
      <stop offset="0" stop-color="#067b58"/>
      <stop offset="1" stop-color="#08ac71"/>
    </linearGradient>
    <linearGradient id="linear-gradient-6" x1="-5610.5" y1="698.69" x2="73634.7" y2="698.69" gradientTransform="translate(0 -682.69)" gradientUnits="userSpaceOnUse">
      <stop offset="0" stop-color="#067b58"/>
      <stop offset="1" stop-color="#08ac71"/>
    </linearGradient>
  </defs>
  <path class="cls-6" d="M23.9,1.7l15.9,30.3h11.6L23.9,1.7Z"/>
  <path class="cls-1" d="M23.8,1.6h-11.7l27.6,30.4h0L23.9,1.7h0l-.1-.1Z"/>
  <path class="cls-3" d="M29.3,20.3l-12.1-13.3h11.5l12.1,13.3h-11.5Z"/>
  <path class="cls-2" d="M66.8,0C28.8,3.3,4.2,21.5,4.2,21.5L0,32C25.8,4.5,62.8.4,66.8,0Z"/>
  <path class="cls-4" d="M67.2,0h-.4C62.8.4,25.8,4.5,0,32h4.4l18-8.6C40.7,6,67.2,0,67.2,0Z"/>
  <path class="cls-5" d="M66.8,0C62.8.4,25.8,4.5,0,32h14.8c2.3-3.1,4.8-6,7.6-8.6C40.7,6,67.2,0,67.2,0,67.2,0,66.8,0,66.8,0Z"/>
</svg>