<svg width="64" height="64" viewBox="0 0 64 64" fill="none" xmlns="http://www.w3.org/2000/svg">
                      <g clip-path="url(#clip0_293_3701)">
                        <path fill-rule="evenodd" clip-rule="evenodd" d="M12.6283 1.3092C13.3514 0.586144 14.5237 0.586144 15.2467 1.3092L19.1138 5.17627C20.1555 6.218 20.1555 7.90699 19.1138 8.94872L15.3471 12.7154C14.6031 13.4594 13.3969 13.4594 12.6529 12.7154C11.9115 11.974 11.9086 10.773 12.6462 10.0279L13.8125 8.84999L12.125 8.91249C11.075 8.95 10.175 9.06249 9.75 9.18749C9.375 9.31249 8.775 9.54999 8.4375 9.71249C8.0875 9.88749 7.4625 10.275 7.025 10.575C6.6 10.875 5.975 11.475 5.625 11.9C5.2875 12.3375 4.8375 13.025 4.625 13.4375C4.425 13.85 4.15 14.6375 4 15.1875C3.80191 15.9578 3.75884 16.4375 3.75137 20.5078C3.74948 21.5379 2.91491 22.375 1.88477 22.375C0.847032 22.375 0.00882546 21.528 0.0196346 20.4903L0.0375027 18.775C0.0750027 15.5375 0.112503 15.0875 0.362503 14.1875C0.512503 13.6375 0.912503 12.625 1.2375 11.9375C1.575 11.25 2.175 10.2625 2.5875 9.74999C3 9.23749 3.6 8.56249 3.95 8.26249C4.2875 7.96249 4.875 7.51249 5.25 7.24999C5.625 6.99999 6.2125 6.63749 6.5625 6.46249C6.9 6.28749 7.5 6.03749 7.875 5.88749C8.25 5.74999 8.925 5.54999 9.375 5.43749C9.825 5.32499 11 5.21249 13.8125 5.09999L12.6349 3.93416C11.9056 3.2122 11.9027 2.03482 12.6283 1.3092ZM60.2481 43.4578C60.263 42.4412 61.0913 41.625 62.108 41.625C63.1428 41.625 63.9787 42.4696 63.9679 43.5044L63.95 45.225C63.9125 48.4625 63.8875 48.9125 63.6375 49.8125C63.4875 50.3625 63.0875 51.375 62.7625 52.0625C62.425 52.75 61.825 53.7375 61.4125 54.25C61.0125 54.7625 60.4 55.4375 60.05 55.7375C59.7125 56.0375 59.1 56.5125 58.6875 56.7875C58.275 57.075 57.4875 57.5125 56.9375 57.7625C56.3875 58.0125 55.4625 58.35 54.875 58.5C54.1375 58.6875 53.2625 58.7875 50.1875 58.9L51.3651 60.0658C52.0944 60.7878 52.0973 61.9652 51.3717 62.6908C50.6487 63.4138 49.4764 63.4138 48.7533 62.6908L44.8862 58.8237C43.8445 57.782 43.8445 56.093 44.8862 55.0513L48.6529 51.2846C49.3969 50.5406 50.6031 50.5406 51.3471 51.2846C52.0885 52.026 52.0914 53.227 51.3538 53.9721L50.1875 55.15L51.875 55.0875C52.925 55.05 53.825 54.9375 54.25 54.8125C54.625 54.6875 55.275 54.425 55.6875 54.225C56.1 54.0125 56.75 53.6 57.125 53.3C57.5 53 58.0125 52.525 58.2625 52.225C58.5125 51.925 58.9 51.375 59.125 51C59.35 50.625 59.675 49.8875 59.85 49.375C60.175 48.475 60.1875 48.325 60.225 45.0375L60.2481 43.4578ZM43.875 2.42499C44.925 2.44999 46.05 2.57499 46.8125 2.72499C47.5 2.87499 48.5125 3.13749 49.0625 3.31249C49.6125 3.49999 50.5125 3.86249 51.0625 4.12499C51.6125 4.37499 52.6 4.94999 53.25 5.37499C54.025 5.88749 54.9625 6.68749 55.95 7.67499C56.775 8.49999 57.7125 9.57499 58.025 10.0625C58.35 10.5375 58.8625 11.4125 59.175 12C59.4875 12.575 59.9625 13.7375 60.2375 14.5625C60.5125 15.3875 60.8375 16.65 60.95 17.375C61.125 18.4 61.15 19.1375 61.1 20.8125C61.0375 22.6125 60.975 23.15 60.6625 24.375C60.45 25.1625 60.05 26.375 59.7625 27.0625C59.475 27.75 58.9625 28.7625 58.625 29.3125C58.3 29.8625 57.6625 30.7625 57.2125 31.3125C56.775 31.8625 56 32.6875 55.4875 33.1625C54.9875 33.6375 54.0875 34.3625 53.5 34.7625C52.925 35.175 51.875 35.775 51.1875 36.1125C50.5 36.45 49.525 36.8625 49 37.025C48.4875 37.2 47.5875 37.4375 47 37.55C46.425 37.675 45.375 37.8125 44.6875 37.85C44 37.9 42.9625 37.9125 41.3125 37.85L40.95 36.7625C40.7375 36.175 40.275 35.0875 39.925 34.375C39.5625 33.65 38.9375 32.55 38.525 31.9375C38.125 31.3125 37.3625 30.325 36.8625 29.75C36.35 29.1625 35.525 28.3125 35.025 27.875C34.525 27.425 33.625 26.7 33.025 26.275C32.4375 25.85 31.1875 25.1125 30.25 24.6375C29.325 24.1625 27.9625 23.5875 27.225 23.3625C26.0625 22.9875 25.8625 22.8875 25.7875 22.625C25.7375 22.45 25.7 21.325 25.7 20.125C25.7 18.2875 25.7375 17.725 25.9875 16.625C26.15 15.9 26.45 14.825 26.6625 14.25C26.8625 13.6625 27.2625 12.7375 27.5375 12.1875C27.8125 11.6375 28.375 10.675 28.8 10.0625C29.225 9.43749 30.1625 8.33749 30.875 7.61249C31.675 6.82499 32.6625 5.98749 33.375 5.49999C34.0375 5.07499 34.9875 4.49999 35.5 4.24999C36.025 3.98749 36.925 3.59999 37.5 3.39999C38.0875 3.18749 38.9875 2.92499 39.5 2.81249C40.025 2.69999 40.8375 2.56249 41.3125 2.49999C41.8 2.43749 42.95 2.39999 43.875 2.42499ZM41.375 10.625H38.25C37.6977 10.625 37.25 11.0727 37.25 11.625V28.5C37.25 29.0523 37.6977 29.5 38.25 29.5H41.375V31.375C41.375 32.4105 42.2145 33.25 43.25 33.25C44.2855 33.25 45.125 32.4105 45.125 31.375V29.5C46 29.5 46.55 29.425 46.9125 29.35C47.275 29.275 47.9 29.0375 48.3125 28.8375C48.725 28.625 49.35 28.1625 49.7 27.8125C50.05 27.4625 50.5125 26.85 50.725 26.4375C50.9375 26.025 51.175 25.3125 51.2625 24.875C51.35 24.4125 51.3875 23.725 51.35 23.3125C51.3 22.9 51.1625 22.25 51.025 21.875C50.875 21.4875 50.6 20.9375 50.3875 20.65C50.175 20.3625 50 20.0875 50 20.0625C50 20.025 50.1625 19.75 50.3625 19.4625C50.5625 19.175 50.8625 18.625 51.0125 18.25C51.25 17.675 51.3 17.3375 51.3 16.25C51.3 15.1875 51.25 14.8 51.025 14.25C50.875 13.8625 50.55 13.275 50.2875 12.9375C50.025 12.6 49.5375 12.0875 49.1875 11.8125C48.85 11.525 48.225 11.1625 47.8125 11C47.4 10.8375 46.6375 10.675 46.1 10.6375L45.125 10.5625V8.62499C45.125 7.58946 44.2855 6.74999 43.25 6.74999C42.2145 6.74999 41.375 7.58946 41.375 8.62499V10.625ZM21.4375 26.0875C21.9875 26.1125 22.925 26.2125 23.5 26.3125C24.0875 26.4 25.075 26.625 25.6875 26.8125C26.3125 26.9875 27.4375 27.425 28.1875 27.7875C28.95 28.15 29.9375 28.6875 30.375 28.9875C30.825 29.2875 31.6375 29.9125 32.1875 30.375C32.7375 30.8375 33.5625 31.6625 34.025 32.2C34.475 32.7375 35.1125 33.575 35.4375 34.0625C35.7625 34.5375 36.275 35.4375 36.575 36.0625C36.875 36.675 37.2875 37.6875 37.4875 38.3125C37.6875 38.925 37.9625 39.9375 38.0875 40.5625C38.25 41.4 38.3125 42.2375 38.3 43.875C38.3 45.6125 38.25 46.3125 38.0375 47.3125C37.8875 48 37.5875 49.0625 37.375 49.6875C37.15 50.3 36.7625 51.225 36.5 51.75C36.25 52.2625 35.675 53.2125 35.25 53.875C34.775 54.575 33.925 55.5875 33.1375 56.375C32.35 57.1625 31.3375 58.0125 30.625 58.4875C29.975 58.9125 29.025 59.4875 28.5 59.75C27.9875 60 27.0625 60.3875 26.4375 60.6125C25.825 60.825 24.75 61.125 24.0625 61.275C23.0625 61.4875 22.3875 61.5375 20.625 61.5375C18.875 61.5375 18.2 61.4875 17.1875 61.275C16.5 61.125 15.4375 60.825 14.8125 60.6125C14.2 60.4 13.1875 59.9625 12.5625 59.65C11.95 59.35 11.025 58.8 10.5 58.45C9.9875 58.1 8.8875 57.1375 8.0625 56.3125C7.2375 55.4875 6.3 54.4125 5.9875 53.9375C5.6625 53.45 5.15 52.575 4.8375 52C4.525 51.4125 4.05 50.2625 3.775 49.4375C3.5 48.6125 3.175 47.3375 3.0625 46.625C2.8875 45.5875 2.8625 44.85 2.9125 43.1875C2.975 41.4625 3.05 40.8 3.3125 39.75C3.5 39.025 3.8375 37.925 4.0875 37.3125C4.3375 36.6875 4.7625 35.7625 5.05 35.25C5.325 34.725 5.9625 33.775 6.45 33.125C6.95 32.4625 7.8 31.5125 8.3375 31C8.8875 30.475 9.7875 29.7375 10.325 29.35C10.875 28.95 11.875 28.35 12.5625 28C13.25 27.65 14.4125 27.175 15.125 26.9375C15.85 26.7 16.8125 26.45 17.25 26.3625C17.7 26.2875 18.6 26.175 19.25 26.125C19.9125 26.0875 20.8875 26.0625 21.4375 26.0875ZM18.75 34C17.9375 34.1875 17.3375 34.4125 16.9125 34.625C16.4875 34.825 15.875 35.2375 15.5625 35.525C15.2375 35.8125 14.8125 36.3375 14.5875 36.6875C14.375 37.025 14.1 37.65 13.975 38.0625C13.8375 38.4875 13.7375 39.2 13.7375 39.75C13.7375 40.2625 13.8 40.9375 13.8875 41.25C13.9625 41.55 14.2 42.125 14.4 42.525C14.5875 42.925 15.05 43.5375 15.425 43.9C15.7875 44.2625 16.425 44.725 16.825 44.925C17.2375 45.1125 17.7375 45.3375 17.9375 45.4C18.15 45.4625 19.25 45.55 20.4 45.6C22.2125 45.675 22.5375 45.7125 22.825 45.9375C23.0125 46.075 23.2875 46.3375 23.425 46.5375C23.625 46.8 23.6875 47.0625 23.6875 47.625C23.6875 48.1625 23.625 48.4375 23.4375 48.7C23.2875 48.9 22.975 49.1875 22.75 49.3375C22.35 49.6 22.1875 49.625 20.5625 49.625C19.0875 49.6125 18.7625 49.575 18.4375 49.375C18.2375 49.25 17.9625 48.9875 17.825 48.7875C17.6875 48.5875 17.55 48.2375 17.5125 48C17.469 47.7461 17.2513 47.5588 16.9937 47.5536L14.8252 47.5102C14.222 47.4982 13.7392 48.0205 13.8361 48.6159C13.9527 49.3323 14.0767 49.7309 14.225 50.0625C14.425 50.475 14.825 51.0875 15.1375 51.425C15.4375 51.7625 16 52.2375 16.375 52.4875C16.7625 52.7375 17.45 53.05 17.9125 53.1875L18.7625 53.4375L18.7567 55.1053C18.753 56.1454 19.6045 56.9855 20.6444 56.9679C21.6446 56.9509 22.4514 56.1446 22.469 55.1444L22.5 53.375C23.375 53.175 23.9875 52.9375 24.4125 52.725C24.8375 52.5125 25.475 52.05 25.825 51.7C26.1625 51.3375 26.625 50.6875 26.85 50.25C27.075 49.8 27.325 49.125 27.4 48.75C27.475 48.3625 27.5 47.6625 27.475 47.1875C27.4375 46.7 27.2875 46 27.15 45.625C27.0125 45.2375 26.6625 44.625 26.3875 44.25C26.1125 43.8625 25.5875 43.325 25.225 43.05C24.8625 42.775 24.225 42.4125 23.8125 42.25C23.175 42 22.75 41.95 20.9375 41.875C19.775 41.8375 18.7 41.7375 18.5625 41.6625C18.425 41.575 18.2 41.3875 18.05 41.225C17.9 41.0625 17.7125 40.7875 17.625 40.625C17.55 40.45 17.475 40.025 17.4875 39.6875C17.5 39.3 17.6 38.9125 17.75 38.6875C17.875 38.475 18.2 38.1875 18.4625 38.025C18.8875 37.7875 19.125 37.75 20.6 37.75C21.75 37.75 22.3625 37.8 22.6 37.9125C22.7875 38.0125 23.1 38.2625 23.2875 38.475C23.475 38.6875 23.675 39.1 23.725 39.375C23.7756 39.6641 24.0266 39.875 24.3201 39.875H26.4373C27.0361 39.875 27.5071 39.3507 27.4013 38.7613C27.3125 38.2668 27.2226 37.9369 27.1375 37.7125C27 37.35 26.65 36.725 26.35 36.3125C26.0125 35.8375 25.5125 35.3625 25 35.0125C24.55 34.7125 23.8125 34.375 23.35 34.2375L22.5 34V32.375C22.5 31.3395 21.6605 30.5 20.625 30.5C19.5895 30.5 18.75 31.3395 18.75 32.375V34ZM41 14.375H43.5625C45.4 14.375 46.25 14.4125 46.5375 14.5375C46.7625 14.625 47.075 14.8875 47.25 15.125C47.4375 15.3875 47.575 15.775 47.6 16.125C47.6375 16.5125 47.575 16.8125 47.4125 17.125C47.275 17.3625 46.975 17.6875 46.7375 17.8375C46.3375 18.1125 46.225 18.125 41 18.125V14.375ZM41 21.875L43.475 21.8625C45.7875 21.8625 45.975 21.8875 46.5 22.15C46.8 22.3 47.1625 22.575 47.2875 22.75C47.4125 22.9125 47.55 23.3125 47.5875 23.625C47.65 24.075 47.6125 24.2875 47.3625 24.725C47.1625 25.075 46.9 25.3375 46.5625 25.5C46.125 25.7125 45.7875 25.7375 41 25.75V21.875Z" fill="#fff"></path>
                      </g>
                      <defs>
                        <clipPath id="clip0_293_3701">
                          <rect width="64" height="64" fill="white"></rect>
                        </clipPath>
                      </defs>
                    </svg>