<svg width="64" height="64" viewBox="0 0 64 64" fill="none" xmlns="http://www.w3.org/2000/svg">
                      <path fill-rule="evenodd" clip-rule="evenodd" d="M32 0.01248C33.5 -1.99825e-05 34.075 0.04998 35.375 0.32498C36.2375 0.49998 37.4375 0.81248 38.0625 1.02498C38.675 1.22498 39.725 1.67498 40.375 2.02498C41.025 2.36248 41.925 2.88748 42.375 3.18748C42.825 3.48748 43.625 4.11248 44.1625 4.58748C44.6875 5.04998 45.475 5.82498 45.8875 6.31248C46.3 6.78748 46.9375 7.63748 47.3 8.18748C47.675 8.73748 48.175 9.59998 48.425 10.1C48.675 10.5875 49.0125 11.375 49.1875 11.8375C49.375 12.3125 49.65 13.225 49.8125 13.875C49.975 14.525 50.175 15.625 50.2625 16.3125C50.35 17.05 50.3875 18.1875 50.3375 19.0625C50.3 19.8875 50.15 21.15 50 21.875C49.85 22.6 49.6125 23.525 49.475 23.9375C49.3375 24.35 49 25.1875 48.7125 25.8125C48.4375 26.425 47.9875 27.3 47.7125 27.75C47.4375 28.2 46.8625 29.0125 46.4375 29.5625C46.0125 30.1125 45.2125 30.9875 44.6625 31.5C44.1125 32.0125 43.225 32.7625 42.675 33.15C42.1375 33.5375 41.15 34.1375 40.5 34.475C39.85 34.825 38.725 35.3 38 35.5375C37.275 35.7875 36.2625 36.075 35.75 36.1875C35.225 36.3 33.925 36.425 32.8125 36.4625C31.5375 36.5125 30.425 36.475 29.75 36.3875C29.1625 36.3 28.2375 36.125 27.6875 35.9875C27.1375 35.85 26.2875 35.5875 25.8125 35.4125C25.325 35.2375 24.6 34.925 24.1875 34.7125C23.775 34.5125 23.1 34.15 22.6875 33.9C22.275 33.65 21.5125 33.1375 21 32.7375C20.4875 32.35 19.625 31.5875 19.1 31.05C18.575 30.5 17.8625 29.7 17.525 29.25C17.1875 28.8 16.625 27.925 16.2625 27.3125C15.9125 26.6875 15.4625 25.7875 15.2625 25.3125C15.0625 24.825 14.75 23.925 14.5625 23.3125C14.3875 22.6875 14.1625 21.6625 14.0625 21.025C13.9625 20.4 13.875 19.1625 13.875 18.2875C13.875 17.4 13.9625 16.1625 14.0625 15.525C14.1625 14.9 14.375 13.9375 14.5125 13.4125C14.6625 12.875 15 11.9 15.275 11.25C15.5375 10.6 15.9875 9.66248 16.275 9.18748C16.55 8.69998 17.1 7.88748 17.475 7.37498C17.8625 6.86248 18.7125 5.89998 19.375 5.24998C20.025 4.59998 21.1375 3.68748 21.8125 3.22498C22.5 2.76248 23.65 2.11248 24.375 1.76248C25.1 1.42498 26.275 0.97498 27 0.77498C27.725 0.56248 28.7375 0.32498 29.25 0.21248C29.7625 0.11248 31 0.02498 32 0.01248ZM30.5625 9.87498C30.2875 10.05 29.85 10.375 29.5875 10.625C29.3125 10.8625 28.9375 11.3125 28.75 11.625C28.55 11.9375 28.2875 12.4375 28.175 12.75C28.0375 13.1125 27.9375 13.875 27.8875 14.875L27.8125 16.4375L27.5959 16.4445C26.6366 16.4754 25.875 17.262 25.875 18.2218C25.875 19.2038 26.6821 19.893 27.6522 20.0457C27.8498 20.0769 27.875 20.1283 27.875 20.2125C27.875 20.3375 27.8125 20.6625 27.7375 20.9375C27.65 21.2125 27.45 21.5875 27.2625 21.7625C27.0875 21.95 26.7 22.175 26.4 22.2625C26.0865 22.367 25.875 22.6604 25.875 22.9909V24.9491C25.875 25.4604 26.2896 25.875 26.8009 25.875H36.625C37.5915 25.875 38.375 25.0915 38.375 24.125C38.375 23.1585 37.5915 22.375 36.625 22.375H31.125C31.225 21.75 31.2875 21.2125 31.35 20.775L31.4375 20H32.3547C33.3324 20 34.125 19.2074 34.125 18.2296C34.125 17.2679 33.3573 16.4821 32.3958 16.4598L31.4375 16.4375C31.375 14.9875 31.4125 14.3625 31.4875 14.125C31.55 13.8875 31.725 13.5375 31.8625 13.3375C32.0125 13.15 32.3625 12.9125 32.65 12.8C32.9875 12.675 33.3625 12.625 33.65 12.675C33.95 12.725 34.3125 12.925 34.6375 13.2125C34.9875 13.5375 35.1625 13.8375 35.225 14.1625C35.2758 14.4308 35.5102 14.625 35.7832 14.625H37.746C38.3462 14.625 38.8207 14.0983 38.7151 13.5075C38.6731 13.2724 38.6352 13.1114 38.6 13C38.525 12.7625 38.3375 12.3125 38.1875 12C38.025 11.6875 37.6125 11.1375 37.2625 10.775C36.9125 10.425 36.325 9.97498 35.9625 9.78748C35.6125 9.61248 35.025 9.38748 34.6875 9.29998C34.3375 9.19998 33.7 9.12498 33.25 9.13748C32.8 9.13748 32.125 9.23748 31.75 9.34998C31.375 9.47498 30.8375 9.71248 30.5625 9.87498ZM12.4375 28.375C12.5 28.375 12.725 28.675 12.925 29.0375C13.125 29.3875 13.575 30.1125 13.925 30.625C14.275 31.1375 14.95 32.0375 15.45 32.625C15.9375 33.2125 16.8375 34.125 17.45 34.6625C18.0625 35.2 19.15 36.0375 19.875 36.525C20.6 37.0125 21.6625 37.6375 22.25 37.9375C22.8375 38.225 23.5875 38.575 23.925 38.7C24.2625 38.825 24.55 38.9625 24.575 39C24.6 39.0375 24.475 39.625 24.3 40.3125C24.1375 41 23.9 42.2625 23.8 43.125C23.6625 44.225 23.625 45.1875 23.675 46.375C23.7125 47.3 23.8 48.425 23.875 48.875C23.95 49.325 24.0875 50.075 24.2 50.5625C24.3125 51.0375 24.5625 51.975 24.775 52.625C24.9875 53.275 25.45 54.425 25.825 55.1875C26.1875 55.9375 26.8125 57.0625 27.225 57.6875C27.625 58.3 28.25 59.1625 29.25 60.375L28.525 60.8875C28.1375 61.1625 27.1875 61.6875 26.4375 62.0625C25.675 62.4375 24.6125 62.8875 24.0625 63.0625C23.5125 63.2375 22.375 63.525 21.525 63.6875C20.325 63.9375 19.6125 64 18.2125 64C17.2375 64 16.2375 63.95 16 63.8875C15.7625 63.825 15.0875 63.675 14.5 63.5625C13.9125 63.45 12.9875 63.2 12.4375 63C11.8875 62.8125 11.0125 62.4625 10.5 62.225C9.9875 61.9875 8.975 61.4125 8.25 60.9375C7.325 60.3375 6.4875 59.6375 5.425 58.575C4.3625 57.5 3.6625 56.675 3.0625 55.75C2.5875 55.025 2.0125 54.0125 1.775 53.5C1.5375 52.9875 1.2125 52.2 1.0625 51.75C0.9 51.3 0.6875 50.6 0.575 50.1875C0.475 49.775 0.3 48.9125 0.2 48.275C0.0875 47.65 0 46.4875 0 45.7125C0 44.9 0.1 43.7125 0.25 42.875C0.3875 42.0875 0.6 41.075 0.725 40.625C0.8625 40.175 1.15 39.3625 1.3625 38.8125C1.5875 38.2625 2.025 37.3375 2.35 36.775C2.675 36.2 3.2625 35.3 3.65 34.775C4.05 34.2375 4.8125 33.375 5.3375 32.825C5.875 32.2875 6.775 31.5 7.325 31.075C7.8875 30.6625 8.85 30.0375 9.45 29.6875C10.0625 29.35 10.95 28.9125 11.4375 28.725C11.9125 28.5375 12.3625 28.3875 12.4375 28.375ZM15.25 38.5625C13.8875 39.475 13.4125 39.925 13.15 40.3125C12.925 40.65 12.65 41.25 12.5375 41.625C12.4125 42.0625 12.3625 42.6 12.4 43.125C12.4375 43.6125 12.5875 44.2125 12.775 44.625C12.9375 45 13.3375 45.5625 13.65 45.875C13.95 46.1875 14.4625 46.5625 14.7625 46.7125C15.0625 46.8625 15.625 47.05 16 47.125C16.375 47.1875 16.925 47.25 17.2125 47.25C17.65 47.25 17.8 47.3125 18 47.5875C18.15 47.7875 18.2625 48.0375 18.25 48.15C18.25 48.275 18.1125 48.5125 17.9375 48.6875C17.7125 48.925 17.5 49 17.125 49C16.85 49 16.5125 48.9375 16.375 48.875C16.2375 48.8 16.0625 48.6125 16 48.4375C15.9245 48.2487 15.7417 48.125 15.5384 48.125H13.4858C12.8703 48.125 12.3905 48.6791 12.55 49.2736C12.6437 49.6229 12.7379 49.875 12.825 50.0625C12.9875 50.4 13.3625 50.925 13.6625 51.2125C13.95 51.4875 14.4125 51.85 14.6875 51.9875L15.1875 52.25L15.2331 53.2305C15.2778 54.1904 16.0603 54.9506 17.0211 54.9675C18.0397 54.9853 18.875 54.1645 18.875 53.1458V52.25C19.55 51.9625 20.0125 51.625 20.35 51.325C20.675 51.025 21.1 50.45 21.3125 50.05C21.65 49.3875 21.6875 49.2 21.6875 48.125C21.6875 47.15 21.6375 46.825 21.4 46.3375C21.25 46.0125 20.825 45.4375 20.4625 45.0625C20.0625 44.6375 19.575 44.2625 19.1875 44.1C18.8375 43.9625 18.0625 43.775 17.45 43.7C16.475 43.575 16.3125 43.525 16.075 43.225C15.825 42.9125 15.825 42.8625 16 42.5C16.125 42.2375 16.325 42.0625 16.625 41.975C16.9375 41.8875 17.1875 41.8875 17.5 41.975C17.7625 42.0625 18 42.25 18.0875 42.4375C18.1874 42.6295 18.3858 42.75 18.6022 42.75H20.6683C21.2738 42.75 21.7531 42.2116 21.5914 41.6281C21.5059 41.3196 21.4139 41.084 21.325 40.9C21.15 40.55 20.8125 40.05 20.5875 39.8C20.375 39.55 19.8875 39.175 19.525 38.9875L18.875 38.625V37.8125C18.875 36.8115 18.0635 36 17.0625 36C16.0615 36 15.25 36.8115 15.25 37.8125V38.5625ZM51.65 28.3875L52.475 28.7C52.9375 28.875 53.8125 29.2875 54.4375 29.6375C55.05 29.975 56.0125 30.5875 56.5625 31C57.1125 31.4125 58.05 32.2375 58.6625 32.8375C59.2625 33.45 60.0625 34.3625 60.425 34.875C60.8 35.3875 61.325 36.2 61.6125 36.6875C61.8875 37.1625 62.3375 38.1 62.6 38.75C62.8625 39.4 63.2 40.3875 63.35 40.9375C63.4875 41.4875 63.7 42.4625 63.8 43.1C63.9125 43.725 64 44.8875 64 45.6625C64 46.5 63.9 47.6375 63.75 48.5C63.6125 49.2875 63.3875 50.3 63.2625 50.75C63.125 51.2 62.875 51.95 62.6875 52.4375C62.5 52.9125 62.2 53.6 62.0375 53.9375C61.8625 54.2875 61.35 55.125 60.9 55.8125C60.3375 56.6625 59.6 57.5375 58.575 58.575C57.575 59.5625 56.65 60.35 55.875 60.8625C55.225 61.2875 54.2125 61.875 53.625 62.15C53.0375 62.4375 52.1125 62.8125 51.5625 63C51.0125 63.2 50.1125 63.4375 49.5625 63.55C49.0125 63.6625 48.275 63.8125 47.9375 63.8875C47.575 63.9625 46.5 64 45.375 63.9625C44.3125 63.9375 42.9875 63.8125 42.4375 63.7C41.8875 63.5875 41.1 63.4 40.6875 63.2875C40.275 63.175 39.375 62.85 38.6875 62.5625C38 62.2875 37.0375 61.825 36.5625 61.5375C36.075 61.2625 35.2375 60.6875 34.6875 60.275C34.1375 59.8625 33.125 58.95 32.4375 58.2375C31.7625 57.525 30.8625 56.425 30.4625 55.8125C30.05 55.1875 29.4875 54.175 29.1875 53.5625C28.8875 52.9375 28.5125 52.0125 28.3375 51.5C28.1625 50.9875 27.8875 49.975 27.7375 49.25C27.5125 48.175 27.45 47.5375 27.45 45.75C27.45 43.975 27.5 43.3125 27.725 42.25C27.875 41.525 28.05 40.725 28.125 40.4625C28.2375 40.0125 28.2625 40 28.7125 40.0625C28.975 40.1 30.175 40.1625 31.375 40.2C33.0625 40.2625 33.875 40.2375 34.9375 40.075C35.6875 39.9625 36.875 39.7375 37.5625 39.575C38.25 39.4 38.9 39.2375 39 39.1875C39.1375 39.125 39.5875 39.6 42 42.5625C41.0926 42.5974 40.375 43.3431 40.375 44.2512V44.3564C40.375 45.3381 41.1618 46.1385 42.1433 46.1555L44 46.1875V47.75H42.1401C41.1653 47.75 40.375 48.5402 40.375 49.5151C40.375 50.478 41.1468 51.2633 42.1097 51.2799L44 51.3125V53C44 53.9665 44.7835 54.75 45.75 54.75C46.7165 54.75 47.5 53.9665 47.5 53V51.25H49.375C50.3415 51.25 51.125 50.4665 51.125 49.5C51.125 48.5335 50.3415 47.75 49.375 47.75H47.5V46.1875L49.3903 46.1549C50.3532 46.1383 51.125 45.353 51.125 44.3901V44.2535C51.125 43.3541 50.3863 42.7153 49.5 42.5625L51.0068 40.661C51.623 39.8835 51.4876 38.7529 50.7053 38.1429C49.9689 37.5686 48.9236 37.6645 48.3224 38.3791C47.7501 39.0592 46.9175 40.063 45.75 41.5L44.95 40.525C44.5125 40 43.8 39.1375 43.3875 38.625C42.7 37.775 42.65 37.675 42.85 37.525C42.9625 37.4375 43.65 36.975 44.375 36.5C45.1 36.025 46.1625 35.2 46.75 34.6625C47.35 34.125 48.1125 33.3625 48.475 32.9625C48.825 32.575 49.45 31.8125 49.85 31.275C50.2375 30.75 50.8125 29.875 51.1 29.35L51.65 28.3875Z" fill="#fff"></path>
                    </svg>