<svg width="54" height="49" viewBox="0 0 54 49" fill="none" xmlns="http://www.w3.org/2000/svg">
                      <path d="M53.6673 18.9466V43C53.6673 45.9333 51.2673 48.3333 48.334 48.3333H5.66732C2.73398 48.3333 0.333984 45.9333 0.333984 43V11C0.333984 8.06665 2.73398 5.66665 5.66732 5.66665H32.6007C32.4407 6.51998 32.334 7.42665 32.334 8.33331C32.334 12.28 34.0673 15.7733 36.7873 18.2266L28.0603 23.6721C27.4119 24.0767 26.5896 24.0764 25.9415 23.6714L9.12715 13.1624C7.62099 12.221 5.66732 13.3038 5.66732 15.08C5.66732 15.8597 6.06897 16.5843 6.73014 16.9976L24.8783 28.3402C26.1766 29.1516 27.8242 29.1508 29.1217 28.338L41.134 20.8133C42.574 21.3466 44.0673 21.6666 45.6673 21.6666C48.6807 21.6666 51.4273 20.6266 53.6673 18.9466ZM37.6673 8.33331C37.6673 12.76 41.2407 16.3333 45.6673 16.3333C50.094 16.3333 53.6673 12.76 53.6673 8.33331C53.6673 3.90665 50.094 0.333313 45.6673 0.333313C41.2407 0.333313 37.6673 3.90665 37.6673 8.33331Z" fill="#fff"></path>
                    </svg>