<svg width="64" height="64" viewBox="0 0 64 64" fill="none" xmlns="http://www.w3.org/2000/svg">
                      <path d="M12 18C10.5333 18 9.33333 19.2 9.33333 20.6667V25.3333H6.66667C5.2 25.3333 4 26.5333 4 28V54.6667C4 56.1333 5.2 57.3333 6.66667 57.3333H9.33333V60C9.33333 61.4667 10.5333 62.6667 12 62.6667C13.4667 62.6667 14.6667 61.4667 14.6667 60V57.3333H17.3333C18.8 57.3333 20 56.1333 20 54.6667V28C20 26.5333 18.8 25.3333 17.3333 25.3333H14.6667V20.6667C14.6667 19.2 13.4667 18 12 18Z" fill="#ffffff"></path>
                      <path d="M37.3333 20.6667H34.6667V12.6667C34.6667 11.2 33.4667 10 32 10C30.5333 10 29.3333 11.2 29.3333 12.6667V20.6667H26.6667C25.2 20.6667 24 21.8667 24 23.3333V36.6667C24 38.1333 25.2 39.3333 26.6667 39.3333H29.3333V50C29.3333 51.4667 30.5333 52.6667 32 52.6667C33.4667 52.6667 34.6667 51.4667 34.6667 50V39.3333H37.3333C38.8 39.3333 40 38.1333 40 36.6667V23.3333C40 21.8667 38.8 20.6667 37.3333 20.6667Z" fill="#ffffff"></path>
                      <path d="M57.3333 9.66667H54.6667V3.66667C54.6667 2.2 53.4667 1 52 1C50.5333 1 49.3333 2.2 49.3333 3.66667V9.66667H46.6667C45.2 9.66667 44 10.8667 44 12.3333V35.6667C44 37.1333 45.2 38.3333 46.6667 38.3333H49.3333V49C49.3333 50.4667 50.5333 51.6667 52 51.6667C53.4667 51.6667 54.6667 50.4667 54.6667 49V38.3333H57.3333C58.8 38.3333 60 37.1333 60 35.6667V12.3333C60 10.8667 58.8 9.66667 57.3333 9.66667Z" fill="#ffffff"></path>
                    </svg>